# xmcd CD database file
#
# Track frame offsets:
#	150
#	21591
#	43736
#	60820
#	82271
#	100597
#	118025
#	146619
#	165592
#	176930
#	196359
#	209128
#	222796
#	236628
#	252952
#	266317
#	281162
#	297196
#
# Disc length: 4095 seconds
#
# Revision: 0
# Processed by: cddbd v1.5.2PL0 Copyright (c) Steve Scherf et al.
# Submitted via: CDex 1.77
#
DISCID=170ffd12
DTITLE=Herb Ellis - Six Classic Albums CD1
DYEAR=1956
DGENRE=Jazz
TTITLE0=Sweetheart blues
TTITLE1=Somebody loves me
TTITLE2=It could happen to you
TTITLE3=Pogo
TTITLE4=Detour ahead
TTITLE5=Ellis in wonderland
TTITLE6=Have you met Miss Jones
TTITLE7=A simple tune
TTITLE8=What a difference a day made
TTITLE9=Polka dots and moonbeams
TTITLE10=Blow fiddle blow
TTITLE11=Blue orchids
TTITLE12=Gone with the wind
TTITLE13=Squeeze me
TTITLE14=You stepped out of a dream
TTITLE15=Moonlight in Vermont
TTITLE16=If love is good to me
TTITLE17=Big me little me
EXTD=YEAR: 1956
EXTT0=
EXTT1=
EXTT2=
EXTT3=
EXTT4=
EXTT5=
EXTT6=
EXTT7=
EXTT8=
EXTT9=
EXTT10=
EXTT11=
EXTT12=
EXTT13=
EXTT14=
EXTT15=
EXTT16=
EXTT17=
PLAYORDER=
